# xmcd
#
# Track frame offsets:
#	150
#	21455
#	41024
#	60524
#	77636
#	91661
#	112821
#	134215
#	153811
#	173352
#	190467
#	204507
#
# Disc length: 3008 seconds
#
# Revision: 1
# Processed by: cddbd v1.5.1PL2 Copyright (c) Steve Scherf et al.
# Submitted via: audiograbber 1.83.01
#
DISCID=940bbe0c
DTITLE=Garth Brooks - Chartbusters 20313
DYEAR=1900
DGENRE=Karaoke
TTITLE0=Why Ain't I Running (Vocals)
TTITLE1=Big Money (Vocals)
TTITLE2=Mr. Midnight (Vocals)
TTITLE3=Squeeze Me In (Vocals)
TTITLE4=Thicker Than Blood (Vocals)
TTITLE5=Rodeo Or Mexico (Vocals)
TTITLE6=Why Ain't I Running
TTITLE7=Big Money
TTITLE8=Mr. Midnight
TTITLE9=Squeeze Me In
TTITLE10=Thicker Than Blood
TTITLE11=Rodeo Or Mexico
EXTD=
EXTT0=
EXTT1=
EXTT2=
EXTT3=
EXTT4=
EXTT5=
EXTT6=
EXTT7=
EXTT8=
EXTT9=
EXTT10=
EXTT11=
PLAYORDER=
